<?xml version="1.0" encoding="UTF-8" standalone="no"?>
<!DOCTYPE svg PUBLIC "-//W3C//DTD SVG 1.1//EN"
 "http://www.w3.org/Graphics/SVG/1.1/DTD/svg11.dtd">
<!-- Generated by graphviz version 15.0.0 (0)
 -->
<!-- Pages: 1 -->
<svg width="145pt" height="232pt"
 viewBox="0.00 0.00 145.00 232.00" xmlns="http://www.w3.org/2000/svg" xmlns:xlink="http://www.w3.org/1999/xlink">
<g id="graph0" class="graph" transform="scale(1 1) rotate(0) translate(4 228.4)">
<polygon fill="white" stroke="none" points="-4,4 -4,-228.4 140.71,-228.4 140.71,4 -4,4"/>
<!-- entity_69b2df27c3a89f06e1a16153 -->
<g id="node1" class="node">
<title>entity_69b2df27c3a89f06e1a16153</title>
<g id="a_node1"><a xlink:href="entity_69b2df27c3a89f06e1a16153" xlink:title="&lt;TABLE&gt;">
<polygon fill="wheat" stroke="none" points="8,-90.4 8,-104.8 128.71,-104.8 128.71,-90.4 8,-90.4"/>
<polygon fill="none" stroke="black" points="8,-90.4 8,-104.8 128.71,-104.8 128.71,-90.4 8,-90.4"/>
<text xml:space="preserve" text-anchor="start" x="39.95" y="-94.8" font-family="Arial" font-size="7.00"> Residence Status</text>
<polygon fill="wheat" stroke="none" points="8,-76 8,-90.4 62.25,-90.4 62.25,-76 8,-76"/>
<polygon fill="none" stroke="black" points="8,-76 8,-90.4 62.25,-90.4 62.25,-76 8,-76"/>
<text xml:space="preserve" text-anchor="start" x="22.09" y="-80.4" font-family="Arial" font-size="7.00">Attribute</text>
<polygon fill="wheat" stroke="none" points="62.25,-76 62.25,-90.4 100.54,-90.4 100.54,-76 62.25,-76"/>
<polygon fill="none" stroke="black" points="62.25,-76 62.25,-90.4 100.54,-90.4 100.54,-76 62.25,-76"/>
<text xml:space="preserve" text-anchor="start" x="65.25" y="-80.4" font-family="Arial" font-size="7.00">Data Type</text>
<polygon fill="wheat" stroke="none" points="100.54,-76 100.54,-90.4 128.71,-90.4 128.71,-76 100.54,-76"/>
<polygon fill="none" stroke="black" points="100.54,-76 100.54,-90.4 128.71,-90.4 128.71,-76 100.54,-76"/>
<text xml:space="preserve" text-anchor="start" x="103.54" y="-80.4" font-family="Arial" font-size="7.00">Occurs</text>
<polygon fill="none" stroke="black" points="8,-61.6 8,-76 62.25,-76 62.25,-61.6 8,-61.6"/>
<text xml:space="preserve" text-anchor="start" x="11" y="-66" font-family="Arial" font-size="7.00">Residence type</text>
<polygon fill="none" stroke="black" points="62.25,-61.6 62.25,-76 100.54,-76 100.54,-61.6 62.25,-61.6"/>
<text xml:space="preserve" text-anchor="start" x="65.25" y="-66" font-family="Arial" font-size="7.00">lookup</text>
<polygon fill="none" stroke="black" points="100.54,-61.6 100.54,-76 128.71,-76 128.71,-61.6 100.54,-61.6"/>
<text xml:space="preserve" text-anchor="start" x="103.54" y="-66" font-family="Arial" font-size="7.00">many</text>
<polygon fill="none" stroke="black" points="8,-47.2 8,-61.6 62.25,-61.6 62.25,-47.2 8,-47.2"/>
<text xml:space="preserve" text-anchor="start" x="11" y="-51.6" font-family="Arial" font-size="7.00">Current</text>
<polygon fill="none" stroke="black" points="62.25,-47.2 62.25,-61.6 100.54,-61.6 100.54,-47.2 62.25,-47.2"/>
<text xml:space="preserve" text-anchor="start" x="65.25" y="-51.6" font-family="Arial" font-size="7.00">yes/no</text>
<polygon fill="none" stroke="black" points="100.54,-47.2 100.54,-61.6 128.71,-61.6 128.71,-47.2 100.54,-47.2"/>
<text xml:space="preserve" text-anchor="start" x="103.54" y="-51.6" font-family="Arial" font-size="7.00">once</text>
<polygon fill="none" stroke="black" points="8,-32.8 8,-47.2 62.25,-47.2 62.25,-32.8 8,-32.8"/>
<text xml:space="preserve" text-anchor="start" x="11" y="-37.2" font-family="Arial" font-size="7.00">For Taxation</text>
<polygon fill="none" stroke="black" points="62.25,-32.8 62.25,-47.2 100.54,-47.2 100.54,-32.8 62.25,-32.8"/>
<text xml:space="preserve" text-anchor="start" x="65.25" y="-37.2" font-family="Arial" font-size="7.00">yes/no</text>
<polygon fill="none" stroke="black" points="100.54,-32.8 100.54,-47.2 128.71,-47.2 128.71,-32.8 100.54,-32.8"/>
<text xml:space="preserve" text-anchor="start" x="103.54" y="-37.2" font-family="Arial" font-size="7.00">once</text>
<polygon fill="none" stroke="black" points="8,-18.4 8,-32.8 62.25,-32.8 62.25,-18.4 8,-18.4"/>
<text xml:space="preserve" text-anchor="start" x="11" y="-22.8" font-family="Arial" font-size="7.00">Status source</text>
<polygon fill="none" stroke="black" points="62.25,-18.4 62.25,-32.8 100.54,-32.8 100.54,-18.4 62.25,-18.4"/>
<text xml:space="preserve" text-anchor="start" x="65.25" y="-22.8" font-family="Arial" font-size="7.00">lookup</text>
<polygon fill="none" stroke="black" points="100.54,-18.4 100.54,-32.8 128.71,-32.8 128.71,-18.4 100.54,-18.4"/>
<text xml:space="preserve" text-anchor="start" x="103.54" y="-22.8" font-family="Arial" font-size="7.00">many</text>
<polygon fill="none" stroke="black" points="8,-4 8,-18.4 62.25,-18.4 62.25,-4 8,-4"/>
<text xml:space="preserve" text-anchor="start" x="11" y="-8.4" font-family="Arial" font-size="7.00">Dates</text>
<polygon fill="none" stroke="black" points="62.25,-4 62.25,-18.4 100.54,-18.4 100.54,-4 62.25,-4"/>
<polygon fill="none" stroke="black" points="100.54,-4 100.54,-18.4 128.71,-18.4 128.71,-4 100.54,-4"/>
<text xml:space="preserve" text-anchor="start" x="103.54" y="-8.4" font-family="Arial" font-size="7.00">many</text>
</a>
</g>
</g>
<!-- concept_69b2a1bcc3a89f06e1a0948e -->
<g id="node2" class="node">
<title>concept_69b2a1bcc3a89f06e1a0948e</title>
<g id="a_node2"><a xlink:href="concept_69b2a1bcc3a89f06e1a0948e" xlink:title="Residence">
<ellipse fill="lightblue" stroke="black" cx="68.36" cy="-195.6" rx="36" ry="28.8"/>
<text xml:space="preserve" text-anchor="middle" x="68.36" y="-193.5" font-family="Arial" font-size="7.00">Residence</text>
</a>
</g>
</g>
<!-- concept_69b2a1bcc3a89f06e1a0948e&#45;&gt;entity_69b2df27c3a89f06e1a16153 -->
<g id="edge1" class="edge">
<title>concept_69b2a1bcc3a89f06e1a0948e&#45;&gt;entity_69b2df27c3a89f06e1a16153</title>
<path fill="none" stroke="black" d="M68.36,-166.43C68.36,-152.94 68.36,-136.19 68.36,-119.81"/>
<polygon fill="black" stroke="black" points="71.86,-120.1 68.36,-110.1 64.86,-120.1 71.86,-120.1"/>
<text xml:space="preserve" text-anchor="start" x="38.01" y="-139.54" font-family="Arial" font-size="7.00">may have</text>
</g>
</g>
</svg>
