<?xml version="1.0" encoding="UTF-8" standalone="no"?>
<!DOCTYPE svg PUBLIC "-//W3C//DTD SVG 1.1//EN"
 "http://www.w3.org/Graphics/SVG/1.1/DTD/svg11.dtd">
<!-- Generated by graphviz version 15.0.0 (0)
 -->
<!-- Pages: 1 -->
<svg width="179pt" height="218pt"
 viewBox="0.00 0.00 179.00 218.00" xmlns="http://www.w3.org/2000/svg" xmlns:xlink="http://www.w3.org/1999/xlink">
<g id="graph0" class="graph" transform="scale(1 1) rotate(0) translate(4 214)">
<polygon fill="white" stroke="none" points="-4,4 -4,-214 175.32,-214 175.32,4 -4,4"/>
<!-- entity_69a4a99af751de507cd6242d -->
<g id="node1" class="node">
<title>entity_69a4a99af751de507cd6242d</title>
<g id="a_node1"><a xlink:href="entity_69a4a99af751de507cd6242d" xlink:title="&lt;TABLE&gt;">
<polygon fill="wheat" stroke="none" points="8,-76 8,-90.4 163.32,-90.4 163.32,-76 8,-76"/>
<polygon fill="none" stroke="black" points="8,-76 8,-90.4 163.32,-90.4 163.32,-76 8,-76"/>
<text xml:space="preserve" text-anchor="start" x="58.24" y="-80.4" font-family="Arial" font-size="7.00"> Civil Social Titles</text>
<polygon fill="wheat" stroke="none" points="8,-61.6 8,-76 96.86,-76 96.86,-61.6 8,-61.6"/>
<polygon fill="none" stroke="black" points="8,-61.6 8,-76 96.86,-76 96.86,-61.6 8,-61.6"/>
<text xml:space="preserve" text-anchor="start" x="39.4" y="-66" font-family="Arial" font-size="7.00">Attribute</text>
<polygon fill="wheat" stroke="none" points="96.86,-61.6 96.86,-76 135.15,-76 135.15,-61.6 96.86,-61.6"/>
<polygon fill="none" stroke="black" points="96.86,-61.6 96.86,-76 135.15,-76 135.15,-61.6 96.86,-61.6"/>
<text xml:space="preserve" text-anchor="start" x="99.86" y="-66" font-family="Arial" font-size="7.00">Data Type</text>
<polygon fill="wheat" stroke="none" points="135.15,-61.6 135.15,-76 163.32,-76 163.32,-61.6 135.15,-61.6"/>
<polygon fill="none" stroke="black" points="135.15,-61.6 135.15,-76 163.32,-76 163.32,-61.6 135.15,-61.6"/>
<text xml:space="preserve" text-anchor="start" x="138.15" y="-66" font-family="Arial" font-size="7.00">Occurs</text>
<polygon fill="none" stroke="black" points="8,-47.2 8,-61.6 96.86,-61.6 96.86,-47.2 8,-47.2"/>
<text xml:space="preserve" text-anchor="start" x="11" y="-51.6" font-family="Arial" font-size="7.00">Preferred Form of Address</text>
<polygon fill="none" stroke="black" points="96.86,-47.2 96.86,-61.6 135.15,-61.6 135.15,-47.2 96.86,-47.2"/>
<text xml:space="preserve" text-anchor="start" x="99.86" y="-51.6" font-family="Arial" font-size="7.00">lookup</text>
<polygon fill="none" stroke="black" points="135.15,-47.2 135.15,-61.6 163.32,-61.6 163.32,-47.2 135.15,-47.2"/>
<text xml:space="preserve" text-anchor="start" x="138.15" y="-51.6" font-family="Arial" font-size="7.00">once</text>
<polygon fill="none" stroke="black" points="8,-32.8 8,-47.2 96.86,-47.2 96.86,-32.8 8,-32.8"/>
<text xml:space="preserve" text-anchor="start" x="11" y="-37.2" font-family="Arial" font-size="7.00">Civil Title</text>
<polygon fill="none" stroke="black" points="96.86,-32.8 96.86,-47.2 135.15,-47.2 135.15,-32.8 96.86,-32.8"/>
<text xml:space="preserve" text-anchor="start" x="99.86" y="-37.2" font-family="Arial" font-size="7.00">lookup</text>
<polygon fill="none" stroke="black" points="135.15,-32.8 135.15,-47.2 163.32,-47.2 163.32,-32.8 135.15,-32.8"/>
<text xml:space="preserve" text-anchor="start" x="138.15" y="-37.2" font-family="Arial" font-size="7.00">many</text>
<polygon fill="none" stroke="black" points="8,-18.4 8,-32.8 96.86,-32.8 96.86,-18.4 8,-18.4"/>
<text xml:space="preserve" text-anchor="start" x="11" y="-22.8" font-family="Arial" font-size="7.00">Title Source</text>
<polygon fill="none" stroke="black" points="96.86,-18.4 96.86,-32.8 135.15,-32.8 135.15,-18.4 96.86,-18.4"/>
<text xml:space="preserve" text-anchor="start" x="99.86" y="-22.8" font-family="Arial" font-size="7.00">line</text>
<polygon fill="none" stroke="black" points="135.15,-18.4 135.15,-32.8 163.32,-32.8 163.32,-18.4 135.15,-18.4"/>
<text xml:space="preserve" text-anchor="start" x="138.15" y="-22.8" font-family="Arial" font-size="7.00">many</text>
<polygon fill="none" stroke="black" points="8,-4 8,-18.4 96.86,-18.4 96.86,-4 8,-4"/>
<text xml:space="preserve" text-anchor="start" x="11" y="-8.4" font-family="Arial" font-size="7.00">Dates</text>
<polygon fill="none" stroke="black" points="96.86,-4 96.86,-18.4 135.15,-18.4 135.15,-4 96.86,-4"/>
<polygon fill="none" stroke="black" points="135.15,-4 135.15,-18.4 163.32,-18.4 163.32,-4 135.15,-4"/>
<text xml:space="preserve" text-anchor="start" x="138.15" y="-8.4" font-family="Arial" font-size="7.00">many</text>
</a>
</g>
</g>
<!-- concept_6994574ff751de507ccc0fa3 -->
<g id="node2" class="node">
<title>concept_6994574ff751de507ccc0fa3</title>
<g id="a_node2"><a xlink:href="concept_6994574ff751de507ccc0fa3" xlink:title="Titles">
<ellipse fill="lightblue" stroke="black" cx="85.66" cy="-181.2" rx="36" ry="28.8"/>
<text xml:space="preserve" text-anchor="middle" x="85.66" y="-179.1" font-family="Arial" font-size="7.00">Titles</text>
</a>
</g>
</g>
<!-- concept_6994574ff751de507ccc0fa3&#45;&gt;entity_69a4a99af751de507cd6242d -->
<g id="edge1" class="edge">
<title>concept_6994574ff751de507ccc0fa3&#45;&gt;entity_69a4a99af751de507cd6242d</title>
<path fill="none" stroke="black" d="M85.66,-152.21C85.66,-138.56 85.66,-121.61 85.66,-105.4"/>
<polygon fill="black" stroke="black" points="89.16,-105.85 85.66,-95.85 82.16,-105.85 89.16,-105.85"/>
<text xml:space="preserve" text-anchor="start" x="49.87" y="-125.08" font-family="Arial" font-size="7.00">MayInclude</text>
</g>
</g>
</svg>
