<?xml version="1.0" encoding="UTF-8" standalone="no"?>
<!DOCTYPE svg PUBLIC "-//W3C//DTD SVG 1.1//EN"
 "http://www.w3.org/Graphics/SVG/1.1/DTD/svg11.dtd">
<!-- Generated by graphviz version 15.0.0 (0)
 -->
<!-- Pages: 1 -->
<svg width="193pt" height="391pt"
 viewBox="0.00 0.00 193.00 391.00" xmlns="http://www.w3.org/2000/svg" xmlns:xlink="http://www.w3.org/1999/xlink">
<g id="graph0" class="graph" transform="scale(1 1) rotate(0) translate(4 387.2)">
<polygon fill="white" stroke="none" points="-4,4 -4,-387.2 189.34,-387.2 189.34,4 -4,4"/>
<!-- entity_69a48be5f751de507cd4e22e -->
<g id="node1" class="node">
<title>entity_69a48be5f751de507cd4e22e</title>
<g id="a_node1"><a xlink:href="entity_69a48be5f751de507cd4e22e" xlink:title="&lt;TABLE&gt;">
<polygon fill="wheat" stroke="none" points="8,-249.2 8,-263.6 177.34,-263.6 177.34,-249.2 8,-249.2"/>
<polygon fill="none" stroke="black" points="8,-249.2 8,-263.6 177.34,-263.6 177.34,-249.2 8,-249.2"/>
<text xml:space="preserve" text-anchor="start" x="84.5" y="-253.6" font-family="Arial" font-size="7.00"> Birth</text>
<polygon fill="wheat" stroke="none" points="8,-234.8 8,-249.2 110.88,-249.2 110.88,-234.8 8,-234.8"/>
<polygon fill="none" stroke="black" points="8,-234.8 8,-249.2 110.88,-249.2 110.88,-234.8 8,-234.8"/>
<text xml:space="preserve" text-anchor="start" x="46.41" y="-239.2" font-family="Arial" font-size="7.00">Attribute</text>
<polygon fill="wheat" stroke="none" points="110.88,-234.8 110.88,-249.2 149.17,-249.2 149.17,-234.8 110.88,-234.8"/>
<polygon fill="none" stroke="black" points="110.88,-234.8 110.88,-249.2 149.17,-249.2 149.17,-234.8 110.88,-234.8"/>
<text xml:space="preserve" text-anchor="start" x="113.88" y="-239.2" font-family="Arial" font-size="7.00">Data Type</text>
<polygon fill="wheat" stroke="none" points="149.17,-234.8 149.17,-249.2 177.34,-249.2 177.34,-234.8 149.17,-234.8"/>
<polygon fill="none" stroke="black" points="149.17,-234.8 149.17,-249.2 177.34,-249.2 177.34,-234.8 149.17,-234.8"/>
<text xml:space="preserve" text-anchor="start" x="152.17" y="-239.2" font-family="Arial" font-size="7.00">Occurs</text>
<polygon fill="none" stroke="black" points="8,-220.4 8,-234.8 110.88,-234.8 110.88,-220.4 8,-220.4"/>
<text xml:space="preserve" text-anchor="start" x="11" y="-224.8" font-family="Arial" font-size="7.00">Date of Birth Registration Date </text>
<polygon fill="none" stroke="black" points="110.88,-220.4 110.88,-234.8 149.17,-234.8 149.17,-220.4 110.88,-220.4"/>
<text xml:space="preserve" text-anchor="start" x="113.88" y="-224.8" font-family="Arial" font-size="7.00">date</text>
<polygon fill="none" stroke="black" points="149.17,-220.4 149.17,-234.8 177.34,-234.8 177.34,-220.4 149.17,-220.4"/>
<text xml:space="preserve" text-anchor="start" x="152.17" y="-224.8" font-family="Arial" font-size="7.00">once</text>
<polygon fill="none" stroke="black" points="8,-206 8,-220.4 110.88,-220.4 110.88,-206 8,-206"/>
<text xml:space="preserve" text-anchor="start" x="11" y="-210.4" font-family="Arial" font-size="7.00">Birth Date</text>
<polygon fill="none" stroke="black" points="110.88,-206 110.88,-220.4 149.17,-220.4 149.17,-206 110.88,-206"/>
<text xml:space="preserve" text-anchor="start" x="113.88" y="-210.4" font-family="Arial" font-size="7.00">date</text>
<polygon fill="none" stroke="black" points="149.17,-206 149.17,-220.4 177.34,-220.4 177.34,-206 149.17,-206"/>
<text xml:space="preserve" text-anchor="start" x="152.17" y="-210.4" font-family="Arial" font-size="7.00">once</text>
<polygon fill="none" stroke="black" points="8,-191.6 8,-206 110.88,-206 110.88,-191.6 8,-191.6"/>
<text xml:space="preserve" text-anchor="start" x="11" y="-196" font-family="Arial" font-size="7.00">Place of Birth</text>
<polygon fill="none" stroke="black" points="110.88,-191.6 110.88,-206 149.17,-206 149.17,-191.6 110.88,-191.6"/>
<text xml:space="preserve" text-anchor="start" x="113.88" y="-196" font-family="Arial" font-size="7.00">line</text>
<polygon fill="none" stroke="black" points="149.17,-191.6 149.17,-206 177.34,-206 177.34,-191.6 149.17,-191.6"/>
<text xml:space="preserve" text-anchor="start" x="152.17" y="-196" font-family="Arial" font-size="7.00">once</text>
<polygon fill="none" stroke="black" points="8,-177.2 8,-191.6 110.88,-191.6 110.88,-177.2 8,-177.2"/>
<text xml:space="preserve" text-anchor="start" x="11" y="-181.6" font-family="Arial" font-size="7.00">Country of Birth</text>
<polygon fill="none" stroke="black" points="110.88,-177.2 110.88,-191.6 149.17,-191.6 149.17,-177.2 110.88,-177.2"/>
<text xml:space="preserve" text-anchor="start" x="113.88" y="-181.6" font-family="Arial" font-size="7.00">lookup</text>
<polygon fill="none" stroke="black" points="149.17,-177.2 149.17,-191.6 177.34,-191.6 177.34,-177.2 149.17,-177.2"/>
<text xml:space="preserve" text-anchor="start" x="152.17" y="-181.6" font-family="Arial" font-size="7.00">many</text>
<polygon fill="none" stroke="black" points="8,-162.8 8,-177.2 110.88,-177.2 110.88,-162.8 8,-162.8"/>
<text xml:space="preserve" text-anchor="start" x="11" y="-167.2" font-family="Arial" font-size="7.00">Time of Birth</text>
<polygon fill="none" stroke="black" points="110.88,-162.8 110.88,-177.2 149.17,-177.2 149.17,-162.8 110.88,-162.8"/>
<text xml:space="preserve" text-anchor="start" x="113.88" y="-167.2" font-family="Arial" font-size="7.00">time</text>
<polygon fill="none" stroke="black" points="149.17,-162.8 149.17,-177.2 177.34,-177.2 177.34,-162.8 149.17,-162.8"/>
<text xml:space="preserve" text-anchor="start" x="152.17" y="-167.2" font-family="Arial" font-size="7.00">once</text>
<polygon fill="none" stroke="black" points="8,-148.4 8,-162.8 110.88,-162.8 110.88,-148.4 8,-148.4"/>
<text xml:space="preserve" text-anchor="start" x="11" y="-152.8" font-family="Arial" font-size="7.00">Birth Registration Number</text>
<polygon fill="none" stroke="black" points="110.88,-148.4 110.88,-162.8 149.17,-162.8 149.17,-148.4 110.88,-148.4"/>
<text xml:space="preserve" text-anchor="start" x="113.88" y="-152.8" font-family="Arial" font-size="7.00">line</text>
<polygon fill="none" stroke="black" points="149.17,-148.4 149.17,-162.8 177.34,-162.8 177.34,-148.4 149.17,-148.4"/>
<text xml:space="preserve" text-anchor="start" x="152.17" y="-152.8" font-family="Arial" font-size="7.00">once</text>
<polygon fill="none" stroke="black" points="8,-134 8,-148.4 110.88,-148.4 110.88,-134 8,-134"/>
<text xml:space="preserve" text-anchor="start" x="11" y="-138.4" font-family="Arial" font-size="7.00">Multiple Birth Indicator</text>
<polygon fill="none" stroke="black" points="110.88,-134 110.88,-148.4 149.17,-148.4 149.17,-134 110.88,-134"/>
<text xml:space="preserve" text-anchor="start" x="113.88" y="-138.4" font-family="Arial" font-size="7.00">lookup</text>
<polygon fill="none" stroke="black" points="149.17,-134 149.17,-148.4 177.34,-148.4 177.34,-134 149.17,-134"/>
<text xml:space="preserve" text-anchor="start" x="152.17" y="-138.4" font-family="Arial" font-size="7.00">once</text>
<polygon fill="none" stroke="black" points="8,-119.6 8,-134 110.88,-134 110.88,-119.6 8,-119.6"/>
<text xml:space="preserve" text-anchor="start" x="11" y="-124" font-family="Arial" font-size="7.00">Facility/ Location Type</text>
<polygon fill="none" stroke="black" points="110.88,-119.6 110.88,-134 149.17,-134 149.17,-119.6 110.88,-119.6"/>
<text xml:space="preserve" text-anchor="start" x="113.88" y="-124" font-family="Arial" font-size="7.00">lookup</text>
<polygon fill="none" stroke="black" points="149.17,-119.6 149.17,-134 177.34,-134 177.34,-119.6 149.17,-119.6"/>
<text xml:space="preserve" text-anchor="start" x="152.17" y="-124" font-family="Arial" font-size="7.00">once</text>
</a>
</g>
</g>
<!-- concept_69fb66b0ea1f7a349307cbcf -->
<g id="node3" class="node">
<title>concept_69fb66b0ea1f7a349307cbcf</title>
<g id="a_node3"><a xlink:href="concept_69fb66b0ea1f7a349307cbcf" xlink:title="Date of Birth">
<ellipse fill="lightblue" stroke="black" cx="92.67" cy="-28.8" rx="36" ry="28.8"/>
<text xml:space="preserve" text-anchor="middle" x="92.67" y="-26.7" font-family="Arial" font-size="7.00">Date of Birth</text>
</a>
</g>
</g>
<!-- entity_69a48be5f751de507cd4e22e&#45;&gt;concept_69fb66b0ea1f7a349307cbcf -->
<g id="edge2" class="edge">
<title>entity_69a48be5f751de507cd4e22e&#45;&gt;concept_69fb66b0ea1f7a349307cbcf</title>
<path fill="none" stroke="black" d="M92.67,-115.85C92.67,-99.7 92.67,-83.25 92.67,-69.11"/>
<polygon fill="black" stroke="black" points="96.17,-69.36 92.67,-59.36 89.17,-69.36 96.17,-69.36"/>
<text xml:space="preserve" text-anchor="start" x="68.94" y="-88.68" font-family="Arial" font-size="7.00">Was on</text>
</g>
<!-- concept_699457cbf751de507ccc19df -->
<g id="node2" class="node">
<title>concept_699457cbf751de507ccc19df</title>
<g id="a_node2"><a xlink:href="concept_699457cbf751de507ccc19df" xlink:title="Person Event">
<ellipse fill="lightblue" stroke="black" cx="92.67" cy="-354.4" rx="36" ry="28.8"/>
<text xml:space="preserve" text-anchor="middle" x="92.67" y="-352.3" font-family="Arial" font-size="7.00">Person Event</text>
</a>
</g>
</g>
<!-- concept_699457cbf751de507ccc19df&#45;&gt;entity_69a48be5f751de507cd4e22e -->
<g id="edge1" class="edge">
<title>concept_699457cbf751de507ccc19df&#45;&gt;entity_69a48be5f751de507cd4e22e</title>
<path fill="none" stroke="black" d="M92.67,-325.39C92.67,-312.1 92.67,-295.44 92.67,-278.44"/>
<polygon fill="black" stroke="black" points="96.17,-278.78 92.67,-268.78 89.17,-278.78 96.17,-278.78"/>
<text xml:space="preserve" text-anchor="start" x="56.87" y="-298.6" font-family="Arial" font-size="7.00">MayInclude</text>
</g>
</g>
</svg>
