<?xml version="1.0" encoding="UTF-8" standalone="no"?>
<!DOCTYPE svg PUBLIC "-//W3C//DTD SVG 1.1//EN"
 "http://www.w3.org/Graphics/SVG/1.1/DTD/svg11.dtd">
<!-- Generated by graphviz version 15.0.0 (0)
 -->
<!-- Pages: 1 -->
<svg width="584pt" height="566pt"
 viewBox="0.00 0.00 584.00 566.00" xmlns="http://www.w3.org/2000/svg" xmlns:xlink="http://www.w3.org/1999/xlink">
<g id="graph0" class="graph" transform="scale(1 1) rotate(0) translate(4 561.6)">
<polygon fill="white" stroke="none" points="-4,4 -4,-561.6 580.4,-561.6 580.4,4 -4,4"/>
<!-- structure_69fb7637ea1f7a3493084a38 -->
<g id="node1" class="node">
<title>structure_69fb7637ea1f7a3493084a38</title>
<g id="a_node1"><a xlink:href="structure_69fb7637ea1f7a3493084a38" xlink:title="&lt;TABLE&gt;">
<polygon fill="grey" stroke="none" points="106.87,-539.2 106.87,-553.6 261.8,-553.6 261.8,-539.2 106.87,-539.2"/>
<polygon fill="none" stroke="black" points="106.87,-539.2 106.87,-553.6 261.8,-553.6 261.8,-539.2 106.87,-539.2"/>
<text xml:space="preserve" text-anchor="start" x="160.99" y="-543.6" font-family="Arial" font-size="7.00"> Date 8 Format</text>
<polygon fill="grey" stroke="none" points="106.87,-524.8 106.87,-539.2 153.71,-539.2 153.71,-524.8 106.87,-524.8"/>
<polygon fill="none" stroke="black" points="106.87,-524.8 106.87,-539.2 153.71,-539.2 153.71,-524.8 106.87,-524.8"/>
<text xml:space="preserve" text-anchor="start" x="117.26" y="-529.2" font-family="Arial" font-size="7.00">Attribute</text>
<polygon fill="grey" stroke="none" points="153.71,-524.8 153.71,-539.2 233.63,-539.2 233.63,-524.8 153.71,-524.8"/>
<polygon fill="none" stroke="black" points="153.71,-524.8 153.71,-539.2 233.63,-539.2 233.63,-524.8 153.71,-524.8"/>
<text xml:space="preserve" text-anchor="start" x="177.52" y="-529.2" font-family="Arial" font-size="7.00">Data Type</text>
<polygon fill="grey" stroke="none" points="233.63,-524.8 233.63,-539.2 261.8,-539.2 261.8,-524.8 233.63,-524.8"/>
<polygon fill="none" stroke="black" points="233.63,-524.8 233.63,-539.2 261.8,-539.2 261.8,-524.8 233.63,-524.8"/>
<text xml:space="preserve" text-anchor="start" x="236.63" y="-529.2" font-family="Arial" font-size="7.00">Occurs</text>
<polygon fill="none" stroke="black" points="106.87,-510.4 106.87,-524.8 153.71,-524.8 153.71,-510.4 106.87,-510.4"/>
<text xml:space="preserve" text-anchor="start" x="109.87" y="-514.8" font-family="Arial" font-size="7.00">dd/mm/yyyyy</text>
<polygon fill="none" stroke="black" points="153.71,-510.4 153.71,-524.8 233.63,-524.8 233.63,-510.4 153.71,-510.4"/>
<text xml:space="preserve" text-anchor="start" x="156.71" y="-514.8" font-family="Arial" font-size="7.00">Date &#45; 8 Attribute model</text>
<polygon fill="none" stroke="black" points="233.63,-510.4 233.63,-524.8 261.8,-524.8 261.8,-510.4 233.63,-510.4"/>
<text xml:space="preserve" text-anchor="start" x="236.63" y="-514.8" font-family="Arial" font-size="7.00">many</text>
</a>
</g>
</g>
<!-- structure_69fb7637ea1f7a3493084a38_structure_69c422a89f84c55e298fbdcb -->
<g id="node2" class="node">
<title>structure_69fb7637ea1f7a3493084a38_structure_69c422a89f84c55e298fbdcb</title>
<g id="a_node2"><a xlink:href="structure_69c422a89f84c55e298fbdcb" xlink:title="&lt;TABLE&gt;">
<polygon fill="grey" stroke="none" points="187.96,-430 187.96,-444.4 306.72,-444.4 306.72,-430 187.96,-430"/>
<polygon fill="none" stroke="black" points="187.96,-430 187.96,-444.4 306.72,-444.4 306.72,-430 187.96,-430"/>
<text xml:space="preserve" text-anchor="start" x="209.4" y="-434.4" font-family="Arial" font-size="7.00"> Date &#45; 8 Attribute model</text>
<polygon fill="grey" stroke="none" points="187.96,-415.6 187.96,-430 240.25,-430 240.25,-415.6 187.96,-415.6"/>
<polygon fill="none" stroke="black" points="187.96,-415.6 187.96,-430 240.25,-430 240.25,-415.6 187.96,-415.6"/>
<text xml:space="preserve" text-anchor="start" x="201.07" y="-420" font-family="Arial" font-size="7.00">Attribute</text>
<polygon fill="grey" stroke="none" points="240.25,-415.6 240.25,-430 278.55,-430 278.55,-415.6 240.25,-415.6"/>
<polygon fill="none" stroke="black" points="240.25,-415.6 240.25,-430 278.55,-430 278.55,-415.6 240.25,-415.6"/>
<text xml:space="preserve" text-anchor="start" x="243.25" y="-420" font-family="Arial" font-size="7.00">Data Type</text>
<polygon fill="grey" stroke="none" points="278.55,-415.6 278.55,-430 306.72,-430 306.72,-415.6 278.55,-415.6"/>
<polygon fill="none" stroke="black" points="278.55,-415.6 278.55,-430 306.72,-430 306.72,-415.6 278.55,-415.6"/>
<text xml:space="preserve" text-anchor="start" x="281.55" y="-420" font-family="Arial" font-size="7.00">Occurs</text>
<polygon fill="none" stroke="black" points="187.96,-401.2 187.96,-415.6 240.25,-415.6 240.25,-401.2 187.96,-401.2"/>
<text xml:space="preserve" text-anchor="start" x="190.96" y="-405.6" font-family="Arial" font-size="7.00">Day</text>
<polygon fill="none" stroke="black" points="240.25,-401.2 240.25,-415.6 278.55,-415.6 278.55,-401.2 240.25,-401.2"/>
<text xml:space="preserve" text-anchor="start" x="243.25" y="-405.6" font-family="Arial" font-size="7.00">lookup</text>
<polygon fill="none" stroke="black" points="278.55,-401.2 278.55,-415.6 306.72,-415.6 306.72,-401.2 278.55,-401.2"/>
<text xml:space="preserve" text-anchor="start" x="281.55" y="-405.6" font-family="Arial" font-size="7.00">once</text>
<polygon fill="none" stroke="black" points="187.96,-386.8 187.96,-401.2 240.25,-401.2 240.25,-386.8 187.96,-386.8"/>
<text xml:space="preserve" text-anchor="start" x="190.96" y="-391.2" font-family="Arial" font-size="7.00">Month Number</text>
<polygon fill="none" stroke="black" points="240.25,-386.8 240.25,-401.2 278.55,-401.2 278.55,-386.8 240.25,-386.8"/>
<text xml:space="preserve" text-anchor="start" x="243.25" y="-391.2" font-family="Arial" font-size="7.00">lookup</text>
<polygon fill="none" stroke="black" points="278.55,-386.8 278.55,-401.2 306.72,-401.2 306.72,-386.8 278.55,-386.8"/>
<text xml:space="preserve" text-anchor="start" x="281.55" y="-391.2" font-family="Arial" font-size="7.00">once</text>
<polygon fill="none" stroke="black" points="187.96,-372.4 187.96,-386.8 240.25,-386.8 240.25,-372.4 187.96,-372.4"/>
<text xml:space="preserve" text-anchor="start" x="190.96" y="-376.8" font-family="Arial" font-size="7.00">Year</text>
<polygon fill="none" stroke="black" points="240.25,-372.4 240.25,-386.8 278.55,-386.8 278.55,-372.4 240.25,-372.4"/>
<text xml:space="preserve" text-anchor="start" x="243.25" y="-376.8" font-family="Arial" font-size="7.00">lookup</text>
<polygon fill="none" stroke="black" points="278.55,-372.4 278.55,-386.8 306.72,-386.8 306.72,-372.4 278.55,-372.4"/>
<text xml:space="preserve" text-anchor="start" x="281.55" y="-376.8" font-family="Arial" font-size="7.00">once</text>
</a>
</g>
</g>
<!-- structure_69fb7637ea1f7a3493084a38&#45;&gt;structure_69fb7637ea1f7a3493084a38_structure_69c422a89f84c55e298fbdcb -->
<g id="edge1" class="edge">
<title>structure_69fb7637ea1f7a3493084a38:attribute_69fb7637ea1f7a3493084a39&#45;&gt;structure_69fb7637ea1f7a3493084a38_structure_69c422a89f84c55e298fbdcb</title>
<path fill="none" stroke="black" d="M247.72,-509.4C247.72,-489.26 247.64,-466.84 247.55,-448.34"/>
</g>
<!-- enumeration_69c3fae79f84c55e298dbbe3 -->
<g id="node3" class="node">
<title>enumeration_69c3fae79f84c55e298dbbe3</title>
<g id="a_node3"><a xlink:href="enumeration_69c3fae79f84c55e298dbbe3" xlink:title="&lt;TABLE&gt;">
<polygon fill="#54ff9f" stroke="none" points="8,-188.2 8,-202.6 152.67,-202.6 152.67,-188.2 8,-188.2"/>
<polygon fill="none" stroke="black" points="8,-188.2 8,-202.6 152.67,-202.6 152.67,-188.2 8,-188.2"/>
<text xml:space="preserve" text-anchor="start" x="51.16" y="-192.6" font-family="Arial" font-size="7.00">Day Value Domain</text>
<polygon fill="#54ff9f" stroke="none" points="8,-173.8 8,-188.2 37.35,-188.2 37.35,-173.8 8,-173.8"/>
<polygon fill="none" stroke="black" points="8,-173.8 8,-188.2 37.35,-188.2 37.35,-173.8 8,-173.8"/>
<text xml:space="preserve" text-anchor="start" x="14.51" y="-178.2" font-family="Arial" font-size="7.00">Term</text>
<polygon fill="#54ff9f" stroke="none" points="37.35,-173.8 37.35,-188.2 152.67,-188.2 152.67,-173.8 37.35,-173.8"/>
<polygon fill="none" stroke="black" points="37.35,-173.8 37.35,-188.2 152.67,-188.2 152.67,-173.8 37.35,-173.8"/>
<text xml:space="preserve" text-anchor="start" x="77.5" y="-178.2" font-family="Arial" font-size="7.00">Description</text>
<polygon fill="none" stroke="black" points="8,-159.4 8,-173.8 37.35,-173.8 37.35,-159.4 8,-159.4"/>
<text xml:space="preserve" text-anchor="start" x="11" y="-163.8" font-family="Arial" font-size="7.00">1 to 29</text>
<polygon fill="none" stroke="black" points="37.35,-159.4 37.35,-173.8 152.67,-173.8 152.67,-159.4 37.35,-159.4"/>
<text xml:space="preserve" text-anchor="start" x="40.35" y="-163.8" font-family="Arial" font-size="7.00">February if it is a leap year</text>
<polygon fill="none" stroke="black" points="8,-145 8,-159.4 37.35,-159.4 37.35,-145 8,-145"/>
<text xml:space="preserve" text-anchor="start" x="11" y="-149.4" font-family="Arial" font-size="7.00">1 to 28</text>
<polygon fill="none" stroke="black" points="37.35,-145 37.35,-159.4 152.67,-159.4 152.67,-145 37.35,-145"/>
<text xml:space="preserve" text-anchor="start" x="40.35" y="-149.4" font-family="Arial" font-size="7.00">February if it is not a leap year</text>
<polygon fill="none" stroke="black" points="8,-130.6 8,-145 37.35,-145 37.35,-130.6 8,-130.6"/>
<text xml:space="preserve" text-anchor="start" x="11" y="-135" font-family="Arial" font-size="7.00">1 to 30 </text>
<polygon fill="none" stroke="black" points="37.35,-130.6 37.35,-145 152.67,-145 152.67,-130.6 37.35,-130.6"/>
<text xml:space="preserve" text-anchor="start" x="40.35" y="-135" font-family="Arial" font-size="7.00">April, June, September, November</text>
<polygon fill="none" stroke="black" points="8,-107.8 8,-130.6 37.35,-130.6 37.35,-107.8 8,-107.8"/>
<text xml:space="preserve" text-anchor="start" x="11" y="-120.6" font-family="Arial" font-size="7.00">1 to 31</text>
<polygon fill="none" stroke="black" points="37.35,-107.8 37.35,-130.6 152.67,-130.6 152.67,-107.8 37.35,-107.8"/>
<text xml:space="preserve" text-anchor="start" x="40.35" y="-120.6" font-family="Arial" font-size="7.00">January, March, May, July, August,</text>
<text xml:space="preserve" text-anchor="start" x="40.35" y="-112.2" font-family="Arial" font-size="7.00">October, December</text>
</a>
</g>
</g>
<!-- structure_69fb7637ea1f7a3493084a38_structure_69c422a89f84c55e298fbdcb&#45;&gt;enumeration_69c3fae79f84c55e298dbbe3 -->
<g id="edge2" class="edge">
<title>structure_69fb7637ea1f7a3493084a38_structure_69c422a89f84c55e298fbdcb:attribute_69c422a89f84c55e298fbdcc&#45;&gt;enumeration_69c3fae79f84c55e298dbbe3</title>
<path fill="none" stroke="black" d="M307.72,-408.4C325.5,-408.4 316.46,-383.28 306.72,-368.4 273.3,-317.37 228.54,-350.22 182.34,-310.4 149.03,-281.69 122.16,-239.55 104.37,-206.57"/>
</g>
<!-- enumeration_69c3f7e99f84c55e298d8490 -->
<g id="node4" class="node">
<title>enumeration_69c3f7e99f84c55e298d8490</title>
<g id="a_node4"><a xlink:href="enumeration_69c3f7e99f84c55e298d8490" xlink:title="&lt;TABLE&gt;">
<polygon fill="#54ff9f" stroke="none" points="211.43,-292 211.43,-306.4 373.24,-306.4 373.24,-292 211.43,-292"/>
<polygon fill="none" stroke="black" points="211.43,-292 211.43,-306.4 373.24,-306.4 373.24,-292 211.43,-292"/>
<text xml:space="preserve" text-anchor="start" x="246.81" y="-296.4" font-family="Arial" font-size="7.00">Month number Value Domain</text>
<polygon fill="#54ff9f" stroke="none" points="211.43,-277.6 211.43,-292 233.76,-292 233.76,-277.6 211.43,-277.6"/>
<polygon fill="none" stroke="black" points="211.43,-277.6 211.43,-292 233.76,-292 233.76,-277.6 211.43,-277.6"/>
<text xml:space="preserve" text-anchor="start" x="214.43" y="-282" font-family="Arial" font-size="7.00">Term</text>
<polygon fill="#54ff9f" stroke="none" points="233.76,-277.6 233.76,-292 373.24,-292 373.24,-277.6 233.76,-277.6"/>
<polygon fill="none" stroke="black" points="233.76,-277.6 233.76,-292 373.24,-292 373.24,-277.6 233.76,-277.6"/>
<text xml:space="preserve" text-anchor="start" x="285.99" y="-282" font-family="Arial" font-size="7.00">Description</text>
<polygon fill="none" stroke="black" points="211.43,-254.8 211.43,-277.6 233.76,-277.6 233.76,-254.8 211.43,-254.8"/>
<text xml:space="preserve" text-anchor="start" x="214.43" y="-267.6" font-family="Arial" font-size="7.00">1</text>
<polygon fill="none" stroke="black" points="233.76,-254.8 233.76,-277.6 373.24,-277.6 373.24,-254.8 233.76,-254.8"/>
<text xml:space="preserve" text-anchor="start" x="236.76" y="-267.6" font-family="Arial" font-size="7.00">Equates to January, the first month of</text>
<text xml:space="preserve" text-anchor="start" x="236.76" y="-259.2" font-family="Arial" font-size="7.00">the calendar year.</text>
<polygon fill="none" stroke="black" points="211.43,-232 211.43,-254.8 233.76,-254.8 233.76,-232 211.43,-232"/>
<text xml:space="preserve" text-anchor="start" x="214.43" y="-244.8" font-family="Arial" font-size="7.00">2</text>
<polygon fill="none" stroke="black" points="233.76,-232 233.76,-254.8 373.24,-254.8 373.24,-232 233.76,-232"/>
<text xml:space="preserve" text-anchor="start" x="236.76" y="-244.8" font-family="Arial" font-size="7.00">Equates to February, the second month of</text>
<text xml:space="preserve" text-anchor="start" x="236.76" y="-236.4" font-family="Arial" font-size="7.00">the calendar year.</text>
<polygon fill="none" stroke="black" points="211.43,-209.2 211.43,-232 233.76,-232 233.76,-209.2 211.43,-209.2"/>
<text xml:space="preserve" text-anchor="start" x="214.43" y="-222" font-family="Arial" font-size="7.00">3</text>
<polygon fill="none" stroke="black" points="233.76,-209.2 233.76,-232 373.24,-232 373.24,-209.2 233.76,-209.2"/>
<text xml:space="preserve" text-anchor="start" x="236.76" y="-222" font-family="Arial" font-size="7.00">Equates to March, the third month of the</text>
<text xml:space="preserve" text-anchor="start" x="236.76" y="-213.6" font-family="Arial" font-size="7.00">calendar year.</text>
<polygon fill="none" stroke="black" points="211.43,-186.4 211.43,-209.2 233.76,-209.2 233.76,-186.4 211.43,-186.4"/>
<text xml:space="preserve" text-anchor="start" x="214.43" y="-199.2" font-family="Arial" font-size="7.00">4</text>
<polygon fill="none" stroke="black" points="233.76,-186.4 233.76,-209.2 373.24,-209.2 373.24,-186.4 233.76,-186.4"/>
<text xml:space="preserve" text-anchor="start" x="236.76" y="-199.2" font-family="Arial" font-size="7.00">Equates to April, the fourth month of the</text>
<text xml:space="preserve" text-anchor="start" x="236.76" y="-190.8" font-family="Arial" font-size="7.00">calendar year.</text>
<polygon fill="none" stroke="black" points="211.43,-163.6 211.43,-186.4 233.76,-186.4 233.76,-163.6 211.43,-163.6"/>
<text xml:space="preserve" text-anchor="start" x="214.43" y="-176.4" font-family="Arial" font-size="7.00">5</text>
<polygon fill="none" stroke="black" points="233.76,-163.6 233.76,-186.4 373.24,-186.4 373.24,-163.6 233.76,-163.6"/>
<text xml:space="preserve" text-anchor="start" x="236.76" y="-176.4" font-family="Arial" font-size="7.00">Equates to May, the fifth month of the</text>
<text xml:space="preserve" text-anchor="start" x="236.76" y="-168" font-family="Arial" font-size="7.00">calendar year.</text>
<polygon fill="none" stroke="black" points="211.43,-140.8 211.43,-163.6 233.76,-163.6 233.76,-140.8 211.43,-140.8"/>
<text xml:space="preserve" text-anchor="start" x="214.43" y="-153.6" font-family="Arial" font-size="7.00">6</text>
<polygon fill="none" stroke="black" points="233.76,-140.8 233.76,-163.6 373.24,-163.6 373.24,-140.8 233.76,-140.8"/>
<text xml:space="preserve" text-anchor="start" x="236.76" y="-153.6" font-family="Arial" font-size="7.00">Equates to June, the sixth month of the</text>
<text xml:space="preserve" text-anchor="start" x="236.76" y="-145.2" font-family="Arial" font-size="7.00">calendar year.</text>
<polygon fill="none" stroke="black" points="211.43,-118 211.43,-140.8 233.76,-140.8 233.76,-118 211.43,-118"/>
<text xml:space="preserve" text-anchor="start" x="214.43" y="-130.8" font-family="Arial" font-size="7.00">7</text>
<polygon fill="none" stroke="black" points="233.76,-118 233.76,-140.8 373.24,-140.8 373.24,-118 233.76,-118"/>
<text xml:space="preserve" text-anchor="start" x="236.76" y="-130.8" font-family="Arial" font-size="7.00">Equates to July, the seventh month of the</text>
<text xml:space="preserve" text-anchor="start" x="236.76" y="-122.4" font-family="Arial" font-size="7.00">calendar year.</text>
<polygon fill="none" stroke="black" points="211.43,-95.2 211.43,-118 233.76,-118 233.76,-95.2 211.43,-95.2"/>
<text xml:space="preserve" text-anchor="start" x="214.43" y="-108" font-family="Arial" font-size="7.00">8</text>
<polygon fill="none" stroke="black" points="233.76,-95.2 233.76,-118 373.24,-118 373.24,-95.2 233.76,-95.2"/>
<text xml:space="preserve" text-anchor="start" x="236.76" y="-108" font-family="Arial" font-size="7.00">Equates to August, the eighth month of</text>
<text xml:space="preserve" text-anchor="start" x="236.76" y="-99.6" font-family="Arial" font-size="7.00">the calendar year.</text>
<polygon fill="none" stroke="black" points="211.43,-72.4 211.43,-95.2 233.76,-95.2 233.76,-72.4 211.43,-72.4"/>
<text xml:space="preserve" text-anchor="start" x="214.43" y="-85.2" font-family="Arial" font-size="7.00">9</text>
<polygon fill="none" stroke="black" points="233.76,-72.4 233.76,-95.2 373.24,-95.2 373.24,-72.4 233.76,-72.4"/>
<text xml:space="preserve" text-anchor="start" x="236.76" y="-85.2" font-family="Arial" font-size="7.00">Equates to September, the nineth month of</text>
<text xml:space="preserve" text-anchor="start" x="236.76" y="-76.8" font-family="Arial" font-size="7.00">the calendar year.</text>
<polygon fill="none" stroke="black" points="211.43,-49.6 211.43,-72.4 233.76,-72.4 233.76,-49.6 211.43,-49.6"/>
<text xml:space="preserve" text-anchor="start" x="214.43" y="-62.4" font-family="Arial" font-size="7.00">10</text>
<polygon fill="none" stroke="black" points="233.76,-49.6 233.76,-72.4 373.24,-72.4 373.24,-49.6 233.76,-49.6"/>
<text xml:space="preserve" text-anchor="start" x="236.76" y="-62.4" font-family="Arial" font-size="7.00">Equates to October, the tenth month of</text>
<text xml:space="preserve" text-anchor="start" x="236.76" y="-54" font-family="Arial" font-size="7.00">the calendar year.</text>
<polygon fill="none" stroke="black" points="211.43,-26.8 211.43,-49.6 233.76,-49.6 233.76,-26.8 211.43,-26.8"/>
<text xml:space="preserve" text-anchor="start" x="214.43" y="-39.6" font-family="Arial" font-size="7.00">11</text>
<polygon fill="none" stroke="black" points="233.76,-26.8 233.76,-49.6 373.24,-49.6 373.24,-26.8 233.76,-26.8"/>
<text xml:space="preserve" text-anchor="start" x="236.76" y="-39.6" font-family="Arial" font-size="7.00">Equates to November, the eleventh month</text>
<text xml:space="preserve" text-anchor="start" x="236.76" y="-31.2" font-family="Arial" font-size="7.00">of the calendar year.</text>
<polygon fill="none" stroke="black" points="211.43,-4 211.43,-26.8 233.76,-26.8 233.76,-4 211.43,-4"/>
<text xml:space="preserve" text-anchor="start" x="214.43" y="-16.8" font-family="Arial" font-size="7.00">12</text>
<polygon fill="none" stroke="black" points="233.76,-4 233.76,-26.8 373.24,-26.8 373.24,-4 233.76,-4"/>
<text xml:space="preserve" text-anchor="start" x="236.76" y="-16.8" font-family="Arial" font-size="7.00">Equates to December, the twelfth month of</text>
<text xml:space="preserve" text-anchor="start" x="236.76" y="-8.4" font-family="Arial" font-size="7.00">the calendar year.</text>
</a>
</g>
</g>
<!-- structure_69fb7637ea1f7a3493084a38_structure_69c422a89f84c55e298fbdcb&#45;&gt;enumeration_69c3f7e99f84c55e298d8490 -->
<g id="edge3" class="edge">
<title>structure_69fb7637ea1f7a3493084a38_structure_69c422a89f84c55e298fbdcb:attribute_69c423079f84c55e298fc44b&#45;&gt;enumeration_69c3f7e99f84c55e298d8490</title>
<path fill="none" stroke="black" d="M307.72,-394C350.12,-394 356.1,-355.88 348.03,-310.16"/>
</g>
<!-- enumeration_69c3f5599f84c55e298d3ff0 -->
<g id="node5" class="node">
<title>enumeration_69c3f5599f84c55e298d3ff0</title>
<g id="a_node5"><a xlink:href="enumeration_69c3f5599f84c55e298d3ff0" xlink:title="&lt;TABLE&gt;">
<polygon fill="#54ff9f" stroke="none" points="432.27,-162.4 432.27,-176.8 568.4,-176.8 568.4,-162.4 432.27,-162.4"/>
<polygon fill="none" stroke="black" points="432.27,-162.4 432.27,-176.8 568.4,-176.8 568.4,-162.4 432.27,-162.4"/>
<text xml:space="preserve" text-anchor="start" x="451.69" y="-166.8" font-family="Arial" font-size="7.00">Year operational Value Domain</text>
<polygon fill="#54ff9f" stroke="none" points="432.27,-148 432.27,-162.4 487.69,-162.4 487.69,-148 432.27,-148"/>
<polygon fill="none" stroke="black" points="432.27,-148 432.27,-162.4 487.69,-162.4 487.69,-148 432.27,-148"/>
<text xml:space="preserve" text-anchor="start" x="451.81" y="-152.4" font-family="Arial" font-size="7.00">Term</text>
<polygon fill="#54ff9f" stroke="none" points="487.69,-148 487.69,-162.4 568.4,-162.4 568.4,-148 487.69,-148"/>
<polygon fill="none" stroke="black" points="487.69,-148 487.69,-162.4 568.4,-162.4 568.4,-148 487.69,-148"/>
<text xml:space="preserve" text-anchor="start" x="510.54" y="-152.4" font-family="Arial" font-size="7.00">Description</text>
<polygon fill="none" stroke="black" points="432.27,-133.6 432.27,-148 487.69,-148 487.69,-133.6 432.27,-133.6"/>
<text xml:space="preserve" text-anchor="start" x="435.27" y="-138" font-family="Arial" font-size="7.00">1900 to TODAY</text>
<polygon fill="none" stroke="black" points="487.69,-133.6 487.69,-148 568.4,-148 568.4,-133.6 487.69,-133.6"/>
<text xml:space="preserve" text-anchor="start" x="490.69" y="-138" font-family="Arial" font-size="7.00">Year for operational use</text>
</a>
</g>
</g>
<!-- structure_69fb7637ea1f7a3493084a38_structure_69c422a89f84c55e298fbdcb&#45;&gt;enumeration_69c3f5599f84c55e298d3ff0 -->
<g id="edge4" class="edge">
<title>structure_69fb7637ea1f7a3493084a38_structure_69c422a89f84c55e298fbdcb:attribute_69c423079f84c55e298fc44c&#45;&gt;enumeration_69c3f5599f84c55e298d3ff0</title>
<path fill="none" stroke="black" d="M307.72,-379.6C411.93,-379.6 472.18,-238.43 492.5,-180.53"/>
</g>
</g>
</svg>
