<?xml version="1.0" encoding="UTF-8" standalone="no"?>
<!DOCTYPE svg PUBLIC "-//W3C//DTD SVG 1.1//EN"
 "http://www.w3.org/Graphics/SVG/1.1/DTD/svg11.dtd">
<!-- Generated by graphviz version 15.0.0 (0)
 -->
<!-- Pages: 1 -->
<svg width="310pt" height="319pt"
 viewBox="0.00 0.00 310.00 319.00" xmlns="http://www.w3.org/2000/svg" xmlns:xlink="http://www.w3.org/1999/xlink">
<g id="graph0" class="graph" transform="scale(1 1) rotate(0) translate(4 315.2)">
<polygon fill="white" stroke="none" points="-4,4 -4,-315.2 306,-315.2 306,4 -4,4"/>
<!-- entity_699dbe0ef751de507cd23a3f -->
<g id="node1" class="node">
<title>entity_699dbe0ef751de507cd23a3f</title>
<g id="a_node1"><a xlink:href="entity_699dbe0ef751de507cd23a3f" xlink:title="&lt;TABLE&gt;">
<polygon fill="wheat" stroke="none" points="98.04,-177.2 98.04,-191.6 203.96,-191.6 203.96,-177.2 98.04,-177.2"/>
<polygon fill="none" stroke="black" points="98.04,-177.2 98.04,-191.6 203.96,-191.6 203.96,-177.2 98.04,-177.2"/>
<text xml:space="preserve" text-anchor="start" x="129.02" y="-181.6" font-family="Arial" font-size="7.00"> Person Event</text>
<polygon fill="wheat" stroke="none" points="98.04,-162.8 98.04,-177.2 137.5,-177.2 137.5,-162.8 98.04,-162.8"/>
<polygon fill="none" stroke="black" points="98.04,-162.8 98.04,-177.2 137.5,-177.2 137.5,-162.8 98.04,-162.8"/>
<text xml:space="preserve" text-anchor="start" x="104.73" y="-167.2" font-family="Arial" font-size="7.00">Attribute</text>
<polygon fill="wheat" stroke="none" points="137.5,-162.8 137.5,-177.2 175.79,-177.2 175.79,-162.8 137.5,-162.8"/>
<polygon fill="none" stroke="black" points="137.5,-162.8 137.5,-177.2 175.79,-177.2 175.79,-162.8 137.5,-162.8"/>
<text xml:space="preserve" text-anchor="start" x="140.5" y="-167.2" font-family="Arial" font-size="7.00">Data Type</text>
<polygon fill="wheat" stroke="none" points="175.79,-162.8 175.79,-177.2 203.96,-177.2 203.96,-162.8 175.79,-162.8"/>
<polygon fill="none" stroke="black" points="175.79,-162.8 175.79,-177.2 203.96,-177.2 203.96,-162.8 175.79,-162.8"/>
<text xml:space="preserve" text-anchor="start" x="178.79" y="-167.2" font-family="Arial" font-size="7.00">Occurs</text>
<polygon fill="none" stroke="black" points="98.04,-148.4 98.04,-162.8 137.5,-162.8 137.5,-148.4 98.04,-148.4"/>
<text xml:space="preserve" text-anchor="start" x="101.04" y="-152.8" font-family="Arial" font-size="7.00">Birth</text>
<polygon fill="none" stroke="black" points="137.5,-148.4 137.5,-162.8 175.79,-162.8 175.79,-148.4 137.5,-148.4"/>
<polygon fill="none" stroke="black" points="175.79,-148.4 175.79,-162.8 203.96,-162.8 203.96,-148.4 175.79,-148.4"/>
<text xml:space="preserve" text-anchor="start" x="178.79" y="-152.8" font-family="Arial" font-size="7.00">once</text>
<polygon fill="none" stroke="black" points="98.04,-134 98.04,-148.4 137.5,-148.4 137.5,-134 98.04,-134"/>
<text xml:space="preserve" text-anchor="start" x="101.04" y="-138.4" font-family="Arial" font-size="7.00">Death</text>
<polygon fill="none" stroke="black" points="137.5,-134 137.5,-148.4 175.79,-148.4 175.79,-134 137.5,-134"/>
<polygon fill="none" stroke="black" points="175.79,-134 175.79,-148.4 203.96,-148.4 203.96,-134 175.79,-134"/>
<text xml:space="preserve" text-anchor="start" x="178.79" y="-138.4" font-family="Arial" font-size="7.00">once</text>
<polygon fill="none" stroke="black" points="98.04,-119.6 98.04,-134 137.5,-134 137.5,-119.6 98.04,-119.6"/>
<text xml:space="preserve" text-anchor="start" x="101.04" y="-124" font-family="Arial" font-size="7.00">Pregnancy</text>
<polygon fill="none" stroke="black" points="137.5,-119.6 137.5,-134 175.79,-134 175.79,-119.6 137.5,-119.6"/>
<polygon fill="none" stroke="black" points="175.79,-119.6 175.79,-134 203.96,-134 203.96,-119.6 175.79,-119.6"/>
<text xml:space="preserve" text-anchor="start" x="178.79" y="-124" font-family="Arial" font-size="7.00">many</text>
</a>
</g>
</g>
<!-- concept_699878a9f751de507ccf966e -->
<g id="node2" class="node">
<title>concept_699878a9f751de507ccf966e</title>
<g id="a_node2"><a xlink:href="concept_699878a9f751de507ccf966e" xlink:title="Birth">
<ellipse fill="lightblue" stroke="black" cx="36" cy="-28.8" rx="36" ry="28.8"/>
<text xml:space="preserve" text-anchor="middle" x="36" y="-26.7" font-family="Arial" font-size="7.00">Birth</text>
</a>
</g>
</g>
<!-- entity_699dbe0ef751de507cd23a3f&#45;&gt;concept_699878a9f751de507ccf966e -->
<g id="edge1" class="edge">
<title>entity_699dbe0ef751de507cd23a3f&#45;&gt;concept_699878a9f751de507ccf966e</title>
<path fill="none" stroke="black" d="M115.24,-115.8C98.96,-98.13 79.95,-77.5 64.63,-60.87"/>
<polygon fill="black" stroke="black" points="67.37,-58.67 58.02,-53.69 62.22,-63.42 67.37,-58.67"/>
<text xml:space="preserve" text-anchor="start" x="50.12" y="-86.07" font-family="Arial" font-size="7.00">MayInclude</text>
</g>
<!-- concept_699878b6f751de507ccf9c28 -->
<g id="node4" class="node">
<title>concept_699878b6f751de507ccf9c28</title>
<g id="a_node4"><a xlink:href="concept_699878b6f751de507ccf9c28" xlink:title="Death">
<ellipse fill="lightblue" stroke="black" cx="151" cy="-28.8" rx="36" ry="28.8"/>
<text xml:space="preserve" text-anchor="middle" x="151" y="-26.7" font-family="Arial" font-size="7.00">Death</text>
</a>
</g>
</g>
<!-- entity_699dbe0ef751de507cd23a3f&#45;&gt;concept_699878b6f751de507ccf9c28 -->
<g id="edge3" class="edge">
<title>entity_699dbe0ef751de507cd23a3f&#45;&gt;concept_699878b6f751de507ccf9c28</title>
<path fill="none" stroke="black" d="M151,-115.8C151,-101 151,-84.14 151,-69.28"/>
<polygon fill="black" stroke="black" points="154.5,-69.39 151,-59.39 147.5,-69.39 154.5,-69.39"/>
<text xml:space="preserve" text-anchor="start" x="115.2" y="-89.1" font-family="Arial" font-size="7.00">MayInclude</text>
</g>
<!-- concept_699878c6f751de507ccfa1e7 -->
<g id="node5" class="node">
<title>concept_699878c6f751de507ccfa1e7</title>
<g id="a_node5"><a xlink:href="concept_699878c6f751de507ccfa1e7" xlink:title="Pregnancy">
<ellipse fill="lightblue" stroke="black" cx="266" cy="-28.8" rx="36" ry="28.8"/>
<text xml:space="preserve" text-anchor="middle" x="266" y="-26.7" font-family="Arial" font-size="7.00">Pregnancy</text>
</a>
</g>
</g>
<!-- entity_699dbe0ef751de507cd23a3f&#45;&gt;concept_699878c6f751de507ccfa1e7 -->
<g id="edge4" class="edge">
<title>entity_699dbe0ef751de507cd23a3f&#45;&gt;concept_699878c6f751de507ccfa1e7</title>
<path fill="none" stroke="black" d="M186.76,-115.8C203.04,-98.13 222.05,-77.5 237.37,-60.87"/>
<polygon fill="black" stroke="black" points="239.78,-63.42 243.98,-53.69 234.63,-58.67 239.78,-63.42"/>
<text xml:space="preserve" text-anchor="start" x="180.29" y="-86.07" font-family="Arial" font-size="7.00">MayInclude</text>
</g>
<!-- concept_69945d25f751de507ccc6be5 -->
<g id="node3" class="node">
<title>concept_69945d25f751de507ccc6be5</title>
<g id="a_node3"><a xlink:href="concept_69945d25f751de507ccc6be5" xlink:title="Person">
<ellipse fill="lightblue" stroke="black" cx="151" cy="-282.4" rx="36" ry="28.8"/>
<text xml:space="preserve" text-anchor="middle" x="151" y="-280.3" font-family="Arial" font-size="7.00">Person</text>
</a>
</g>
</g>
<!-- concept_69945d25f751de507ccc6be5&#45;&gt;entity_699dbe0ef751de507cd23a3f -->
<g id="edge2" class="edge">
<title>concept_69945d25f751de507ccc6be5&#45;&gt;entity_699dbe0ef751de507cd23a3f</title>
<path fill="none" stroke="black" d="M151,-253.39C151,-239.63 151,-222.62 151,-206.72"/>
<polygon fill="black" stroke="black" points="154.5,-206.91 151,-196.91 147.5,-206.91 154.5,-206.91"/>
<text xml:space="preserve" text-anchor="start" x="138.55" y="-226.19" font-family="Arial" font-size="7.00">Has</text>
</g>
</g>
</svg>
